<svg version="1.1" id="Layer_1" xmlns="http://www.w3.org/2000/svg" xmlns:xlink="http://www.w3.org/1999/xlink" x="0px" y="0px"
	 width="100%" viewBox="0 0 1200 1200" enable-background="new 0 0 1200 1200" xml:space="preserve">
<path fill="#000000" opacity="1.000000" stroke="none" 
	d="
M530.000000,1201.000000 
	C353.333344,1201.000000 177.166672,1201.000000 1.000000,1201.000000 
	C1.000000,801.000000 1.000000,401.000000 1.000000,1.000000 
	C401.000000,1.000000 801.000000,1.000000 1201.000000,1.000000 
	C1201.000000,401.000000 1201.000000,801.000000 1201.000000,1201.000000 
	C977.500000,1201.000000 754.000000,1201.000000 530.000000,1201.000000 
M669.265747,566.463623 
	C668.889954,566.536438 668.514099,566.609253 667.511108,566.620911 
	C667.338684,566.740845 667.166199,566.860718 666.289368,567.111084 
	C654.496765,571.417908 649.475464,581.153381 645.598145,591.821106 
	C629.204346,598.448853 617.098633,610.607971 604.609497,624.492310 
	C604.609497,620.850769 604.436279,618.576111 604.639221,616.335449 
	C605.549438,606.287231 606.100647,596.176147 607.650208,586.222961 
	C610.241638,569.576721 613.305298,552.995667 616.609436,536.474976 
	C617.391357,532.565674 617.201965,530.126038 612.972900,528.515991 
	C612.264709,529.595459 611.294434,530.577515 610.901001,531.752686 
	C607.691528,541.341064 604.180298,550.854309 601.534485,560.600464 
	C594.500122,586.512085 590.005798,612.916199 587.400879,639.632568 
	C585.650635,657.582581 584.078979,675.549988 582.408752,693.507874 
	C581.950317,698.436279 581.424438,703.358337 580.902161,708.555298 
	C580.042725,708.555298 579.209351,708.715393 578.460083,708.531982 
	C556.353943,703.120667 534.194275,697.867126 513.981140,686.818604 
	C511.815857,685.635071 509.596313,684.327515 507.238068,683.767212 
	C502.481018,682.636963 497.743134,685.558167 497.383698,689.653931 
	C496.795197,696.359375 498.164398,702.530640 502.903931,707.655029 
	C516.217896,722.050049 531.819092,733.052673 550.314758,739.815186 
	C553.302979,740.907715 556.202759,742.242126 559.143372,743.464722 
	C558.975769,744.125061 558.808167,744.785339 558.640625,745.445679 
	C550.978943,743.895508 543.204529,742.760864 535.676697,740.717468 
	C512.672974,734.473511 494.629120,720.025635 477.721558,704.154785 
	C469.147858,696.106689 461.256714,687.246399 453.713226,678.205811 
	C442.463013,664.722778 431.671692,650.838196 424.380920,634.644897 
	C422.872589,631.294861 421.306000,627.971069 419.458191,623.967773 
	C418.747681,625.326050 418.328979,625.747192 418.344543,626.151611 
	C418.917755,641.064575 418.419891,656.122498 420.360443,670.858643 
	C425.018341,706.229980 440.510834,737.017639 463.957581,763.597107 
	C482.549438,784.673035 504.904083,800.902771 531.083496,811.648743 
	C553.419922,820.817261 576.609558,826.059143 600.729309,825.610840 
	C613.566101,825.372192 626.507996,823.968750 639.155579,821.709351 
	C670.767822,816.062317 698.643250,801.946899 722.686279,780.912659 
	C743.407227,762.784790 759.774658,741.186279 770.828674,715.642090 
	C780.983765,692.175293 786.361938,667.720276 786.595276,642.323853 
	C786.773621,622.914246 783.933411,603.725830 777.809143,585.152771 
	C772.946289,570.405212 766.490234,556.428406 758.258850,543.246155 
	C756.311401,540.127441 754.463501,539.310120 750.562378,540.033997 
	C741.644470,541.688904 732.540344,542.347778 723.506226,543.361267 
	C721.668152,543.567444 719.805481,543.554443 717.149475,543.680847 
	C747.466614,581.502686 758.584900,623.232117 750.623230,669.995117 
	C743.575500,711.389832 699.574646,769.861877 672.265930,773.633850 
	C667.964905,761.317383 661.697876,750.024780 652.809143,740.407043 
	C640.992920,727.621826 626.625854,719.069336 609.418030,715.564087 
	C606.984924,715.068359 604.568665,714.587158 604.527222,711.076355 
	C604.273865,689.616333 603.887817,668.157898 603.578003,646.698425 
	C603.563904,645.721008 603.692810,644.677063 604.033752,643.768677 
	C608.463013,631.966614 614.627930,621.112854 623.549316,612.203552 
	C630.679810,605.082764 638.586914,598.739685 646.680115,592.606262 
	C653.741699,600.370422 662.747559,604.005493 673.631714,605.379883 
	C683.952881,605.139160 692.765198,600.886292 701.737793,594.902771 
	C708.374695,591.851257 715.011597,588.799744 721.920166,585.623291 
	C715.688599,577.889038 708.992188,572.594177 699.690857,569.995178 
	C692.106262,566.621582 684.284424,564.581848 675.119629,565.533508 
	C673.358032,565.882141 671.596497,566.230774 669.265747,566.463623 
M594.444092,437.483978 
	C593.992676,436.922028 593.541260,436.360077 592.771057,435.217194 
	C589.780884,432.629272 587.071655,429.575531 583.734497,427.562958 
	C578.759766,424.562775 573.342102,422.297058 567.701843,419.170532 
	C558.736877,414.330109 549.481506,410.522064 538.374023,410.614532 
	C535.264465,410.057068 532.154907,409.499634 529.003418,409.000336 
	C529.003418,409.000336 529.056824,408.951813 528.461304,408.353027 
	C523.968750,408.393341 519.476196,408.433624 514.062988,408.300507 
	C510.572937,408.279510 507.075531,408.108185 503.594757,408.277649 
	C499.708130,408.466888 495.836578,408.965515 491.070984,409.286438 
	C467.739319,410.141144 446.147583,416.210266 426.707489,430.585022 
	C429.795166,433.217896 432.659363,435.435852 435.266113,437.923492 
	C444.493286,446.728973 453.619995,455.639648 462.827118,464.466248 
	C463.609222,465.216034 464.705231,465.638336 466.070801,466.745728 
	C473.027557,473.541962 479.984314,480.338196 487.131714,487.653046 
	C487.686615,488.123566 488.241516,488.594086 488.992035,489.597565 
	C489.323151,489.713837 489.654297,489.830109 490.592987,490.288513 
	C495.284790,495.150848 499.976593,500.013184 505.138397,505.274811 
	C513.547180,511.691711 522.369507,517.291138 533.541687,519.900696 
	C547.064270,524.797119 561.044800,523.458374 575.827759,522.757385 
	C589.267212,521.187622 602.137634,517.652832 615.251953,511.968506 
	C612.970093,508.960632 611.489441,506.341217 609.398376,504.369019 
	C600.669678,496.136292 591.757507,488.098145 582.728821,479.340179 
	C573.828613,473.874573 564.928467,468.408966 555.532471,462.440491 
	C553.872498,461.745514 552.246826,460.949463 550.546692,460.372772 
	C542.367188,457.598297 534.167480,454.882996 525.503723,452.018188 
	C525.503723,452.018188 525.023743,452.109283 524.349548,451.989075 
	C523.897156,452.033417 523.444824,452.077728 522.215515,451.938812 
	C518.486633,450.940918 514.757690,449.943054 511.028778,448.945160 
	C511.086487,448.679291 511.144165,448.413391 511.201843,448.147522 
	C515.680786,448.147522 520.159790,448.147522 525.230896,448.716705 
	C536.175537,451.931519 547.120117,455.146301 558.487122,458.840393 
	C565.306519,462.903259 572.125854,466.966095 579.267456,471.620483 
	C592.981812,481.441833 604.591003,493.513397 615.666748,506.879120 
	C616.172852,505.488586 616.458374,505.047821 616.480103,504.594421 
	C617.179199,490.019104 615.288452,475.808624 609.892883,462.213531 
	C606.465393,453.577423 602.286316,445.312347 594.949951,438.440979 
	C594.819397,438.309753 594.688904,438.178558 594.444092,437.483978 
M665.670410,469.826385 
	C674.743042,464.030457 683.815674,458.234497 693.641357,452.255219 
	C697.826660,450.277496 701.903442,448.012909 706.219360,446.380707 
	C715.744629,442.778503 725.390320,439.494934 735.818054,436.220886 
	C746.656372,434.907227 757.494629,433.593567 768.894531,432.872681 
	C774.208557,433.305939 779.522522,433.739197 784.836548,434.172455 
	C784.841431,434.472809 784.846313,434.773193 784.851196,435.073547 
	C779.230347,435.706451 773.609497,436.339386 767.107239,437.115448 
	C761.064026,438.061768 755.020813,439.008087 748.162170,440.089691 
	C739.100342,442.709869 730.038574,445.330048 720.227051,448.082397 
	C712.141846,451.702240 704.056702,455.322083 695.259521,459.067749 
	C685.455261,465.030182 675.650940,470.992584 665.241394,477.244141 
	C654.308777,484.850830 644.118774,493.281769 634.347229,504.672028 
	C645.221802,509.138733 655.196228,513.235779 665.688782,517.855713 
	C666.885132,518.387512 668.033142,519.124512 669.285278,519.419189 
	C681.525452,522.299622 693.782959,525.106262 706.770142,528.280884 
	C714.869690,528.320251 722.976990,528.586304 731.065552,528.307556 
	C735.405212,528.157959 739.712524,527.071960 744.836304,526.389709 
	C752.435913,524.111267 760.035461,521.832825 768.459778,519.384338 
	C777.249695,514.051880 786.039612,508.719391 795.418335,503.117157 
	C796.134827,502.672791 796.851318,502.228455 797.584778,501.779877 
	C797.584778,501.779877 797.603210,501.787292 798.159302,501.391205 
	C808.914429,492.568451 819.669617,483.745667 831.036438,474.553436 
	C838.875183,468.651184 846.713867,462.748932 855.127075,456.449829 
	C869.831055,445.542816 884.535034,434.635773 899.587036,423.470581 
	C897.950500,422.037140 897.047180,421.063568 895.976257,420.337036 
	C888.104248,414.996490 879.875122,410.121643 872.381470,404.298523 
	C861.831543,396.100464 849.181641,393.776611 836.419128,389.625977 
	C835.012512,389.244659 833.623047,388.775482 832.196411,388.496399 
	C823.464966,386.788605 814.725098,385.123901 805.359924,383.116333 
	C790.735413,380.063324 775.985168,378.528625 760.109863,379.251129 
	C746.796875,378.626617 733.737122,380.032745 720.200378,383.994293 
	C718.270569,384.395111 716.291626,384.638245 714.418884,385.222137 
	C701.419189,389.275024 689.084900,394.619629 678.179077,404.062988 
	C676.572754,405.673523 675.149109,407.536896 673.329224,408.851776 
	C664.518616,415.217407 658.170898,423.628052 652.262939,433.242584 
	C641.383850,452.630341 635.092712,473.259338 634.394592,496.405701 
	C645.223694,487.100006 655.123291,478.593048 665.670410,469.826385 
M491.462280,512.021423 
	C487.968262,509.009186 484.474243,505.996948 479.939789,502.087708 
	C472.049530,510.854004 463.784576,519.177307 456.509521,528.290833 
	C439.160645,550.024048 427.733734,574.701660 422.088318,601.944885 
	C421.505096,604.759460 421.740601,608.436157 423.113739,610.849304 
	C430.991333,624.693298 439.331787,638.273743 447.500122,651.952637 
	C448.244110,653.198547 448.881287,654.508240 449.568054,655.788330 
	C450.222656,655.477966 450.877258,655.167542 451.531860,654.857178 
	C448.011047,602.180237 466.827576,559.016846 506.710022,524.284119 
	C501.683075,520.257935 496.838104,516.377502 491.462280,512.021423 
z"/>
<path fill="#8B6139" opacity="1.000000" stroke="none" 
	d="
M646.149353,592.051453 
	C638.586914,598.739685 630.679810,605.082764 623.549316,612.203552 
	C614.627930,621.112854 608.463013,631.966614 604.033752,643.768677 
	C603.692810,644.677063 603.563904,645.721008 603.578003,646.698425 
	C603.887817,668.157898 604.273865,689.616333 604.527222,711.076355 
	C604.568665,714.587158 606.984924,715.068359 609.418030,715.564087 
	C626.625854,719.069336 640.992920,727.621826 652.809143,740.407043 
	C661.697876,750.024780 667.964905,761.317383 672.265930,773.633850 
	C699.574646,769.861877 743.575500,711.389832 750.623230,669.995117 
	C758.584900,623.232117 747.466614,581.502686 717.149475,543.680847 
	C719.805481,543.554443 721.668152,543.567444 723.506226,543.361267 
	C732.540344,542.347778 741.644470,541.688904 750.562378,540.033997 
	C754.463501,539.310120 756.311401,540.127441 758.258850,543.246155 
	C766.490234,556.428406 772.946289,570.405212 777.809143,585.152771 
	C783.933411,603.725830 786.773621,622.914246 786.595276,642.323853 
	C786.361938,667.720276 780.983765,692.175293 770.828674,715.642090 
	C759.774658,741.186279 743.407227,762.784790 722.686279,780.912659 
	C698.643250,801.946899 670.767822,816.062317 639.155579,821.709351 
	C626.507996,823.968750 613.566101,825.372192 600.729309,825.610840 
	C576.609558,826.059143 553.419922,820.817261 531.083496,811.648743 
	C504.904083,800.902771 482.549438,784.673035 463.957581,763.597107 
	C440.510834,737.017639 425.018341,706.229980 420.360443,670.858643 
	C418.419891,656.122498 418.917755,641.064575 418.344543,626.151611 
	C418.328979,625.747192 418.747681,625.326050 419.458191,623.967773 
	C421.306000,627.971069 422.872589,631.294861 424.380920,634.644897 
	C431.671692,650.838196 442.463013,664.722778 453.713226,678.205811 
	C461.256714,687.246399 469.147858,696.106689 477.721558,704.154785 
	C494.629120,720.025635 512.672974,734.473511 535.676697,740.717468 
	C543.204529,742.760864 550.978943,743.895508 558.640625,745.445679 
	C558.808167,744.785339 558.975769,744.125061 559.143372,743.464722 
	C556.202759,742.242126 553.302979,740.907715 550.314758,739.815186 
	C531.819092,733.052673 516.217896,722.050049 502.903931,707.655029 
	C498.164398,702.530640 496.795197,696.359375 497.383698,689.653931 
	C497.743134,685.558167 502.481018,682.636963 507.238068,683.767212 
	C509.596313,684.327515 511.815857,685.635071 513.981140,686.818604 
	C534.194275,697.867126 556.353943,703.120667 578.460083,708.531982 
	C579.209351,708.715393 580.042725,708.555298 580.902161,708.555298 
	C581.424438,703.358337 581.950317,698.436279 582.408752,693.507874 
	C584.078979,675.549988 585.650635,657.582581 587.400879,639.632568 
	C590.005798,612.916199 594.500122,586.512085 601.534485,560.600464 
	C604.180298,550.854309 607.691528,541.341064 610.901001,531.752686 
	C611.294434,530.577515 612.264709,529.595459 612.972900,528.515991 
	C617.201965,530.126038 617.391357,532.565674 616.609436,536.474976 
	C613.305298,552.995667 610.241638,569.576721 607.650208,586.222961 
	C606.100647,596.176147 605.549438,606.287231 604.639221,616.335449 
	C604.436279,618.576111 604.609497,620.850769 604.609497,624.492310 
	C617.098633,610.607971 629.204346,598.448853 645.850220,592.001587 
	C646.102234,592.182007 646.149353,592.051453 646.149353,592.051453 
z"/>
<path fill="#8B6139" opacity="1.000000" stroke="none" 
	d="
M491.727692,512.259277 
	C496.838104,516.377502 501.683075,520.257935 506.710022,524.284119 
	C466.827576,559.016846 448.011047,602.180237 451.531860,654.857178 
	C450.877258,655.167542 450.222656,655.477966 449.568054,655.788330 
	C448.881287,654.508240 448.244110,653.198547 447.500122,651.952637 
	C439.331787,638.273743 430.991333,624.693298 423.113739,610.849304 
	C421.740601,608.436157 421.505096,604.759460 422.088318,601.944885 
	C427.733734,574.701660 439.160645,550.024048 456.509521,528.290833 
	C463.784576,519.177307 472.049530,510.854004 479.939789,502.087708 
	C484.474243,505.996948 487.968262,509.009186 491.727692,512.259277 
z"/>
<path fill="#91C641" opacity="1.000000" stroke="none" 
	d="
M761.031921,379.447510 
	C775.985168,378.528625 790.735413,380.063324 805.677368,383.735901 
	C806.993896,389.063538 807.750427,393.838776 809.032043,398.468628 
	C816.092102,423.972992 823.280396,449.441864 830.424683,474.922913 
	C819.669617,483.745667 808.914429,492.568451 797.756104,501.162231 
	C792.049255,482.261169 786.625610,463.621765 781.524597,444.894501 
	C780.213013,440.079529 778.352600,437.101868 772.770813,437.917999 
	C771.255249,438.139587 769.586914,437.316132 767.988647,436.972290 
	C773.609497,436.339386 779.230347,435.706451 784.851196,435.073547 
	C784.846313,434.773193 784.841431,434.472809 784.836548,434.172455 
	C779.522522,433.739197 774.208557,433.305939 769.049927,432.520233 
	C773.655029,432.049133 774.336670,429.779053 773.172424,425.893188 
	C770.517517,417.031311 767.989624,408.127167 765.634155,399.181183 
	C763.914978,392.652039 762.553101,386.028809 761.031921,379.447510 
z"/>
<path fill="#76AC41" opacity="1.000000" stroke="none" 
	d="
M678.850220,403.938599 
	C689.084900,394.619629 701.419189,389.275024 714.418884,385.222137 
	C716.291626,384.638245 718.270569,384.395111 720.690674,384.422485 
	C722.938660,390.887451 724.811768,396.893463 726.428955,402.967651 
	C729.362000,413.984131 732.142639,425.041229 734.986877,436.081360 
	C725.390320,439.494934 715.744629,442.778503 706.219360,446.380707 
	C701.903442,448.012909 697.826660,450.277496 693.378235,451.993561 
	C693.056396,450.273712 693.270996,448.740906 692.896362,447.368988 
	C689.412292,434.609833 685.902039,421.856323 682.189514,409.162598 
	C681.632629,407.258575 679.990417,405.671997 678.850220,403.938599 
z"/>
<path fill="#9CCC4E" opacity="1.000000" stroke="none" 
	d="
M830.730591,474.738159 
	C823.280396,449.441864 816.092102,423.972992 809.032043,398.468628 
	C807.750427,393.838776 806.993896,389.063538 805.991455,383.900146 
	C814.725098,385.123901 823.464966,386.788605 832.196411,388.496399 
	C833.623047,388.775482 835.012512,389.244659 836.546509,390.240875 
	C836.749939,392.634247 836.515320,394.493866 836.955200,396.177277 
	C838.968445,403.882172 841.086304,411.562378 843.323975,419.205383 
	C847.002869,431.771210 850.803345,444.301453 854.552551,456.846680 
	C846.713867,462.748932 838.875183,468.651184 830.730591,474.738159 
z"/>
<path fill="#7EB340" opacity="1.000000" stroke="none" 
	d="
M720.976746,447.950226 
	C730.038574,445.330048 739.100342,442.709869 748.797485,440.298950 
	C750.160278,442.158630 751.101379,443.749237 751.582825,445.468506 
	C757.579895,466.883789 763.399109,488.349762 769.558044,509.717926 
	C770.689697,513.644165 770.835205,516.767029 767.635071,519.554443 
	C760.035461,521.832825 752.435913,524.111267 744.534302,526.070618 
	C744.195862,523.799927 744.561951,521.737976 744.061523,519.913635 
	C738.068970,498.067657 732.037048,476.231140 725.735352,454.473267 
	C725.031555,452.043365 722.604614,450.112518 720.976746,447.950226 
z"/>
<path fill="#76AC41" opacity="1.000000" stroke="none" 
	d="
M720.601929,448.016296 
	C722.604614,450.112518 725.031555,452.043365 725.735352,454.473267 
	C732.037048,476.231140 738.068970,498.067657 744.061523,519.913635 
	C744.561951,521.737976 744.195862,523.799927 744.133423,526.079956 
	C739.712524,527.071960 735.405212,528.157959 731.065552,528.307556 
	C722.976990,528.586304 714.869690,528.320251 706.756226,527.925415 
	C707.548645,527.390808 708.346985,527.114441 709.162476,527.047852 
	C716.487610,526.449280 716.710327,526.325928 714.828125,519.420044 
	C709.850037,501.154236 704.789612,482.910034 699.576233,464.710449 
	C698.976074,462.615326 697.201538,460.856628 695.971497,458.941956 
	C704.056702,455.322083 712.141846,451.702240 720.601929,448.016296 
z"/>
<path fill="#87BC40" opacity="1.000000" stroke="none" 
	d="
M768.047424,519.469360 
	C770.835205,516.767029 770.689697,513.644165 769.558044,509.717926 
	C763.399109,488.349762 757.579895,466.883789 751.582825,445.468506 
	C751.101379,443.749237 750.160278,442.158630 749.205200,440.231323 
	C755.020813,439.008087 761.064026,438.061768 767.547974,437.043884 
	C769.586914,437.316132 771.255249,438.139587 772.770813,437.917999 
	C778.352600,437.101868 780.213013,440.079529 781.524597,444.894501 
	C786.625610,463.621765 792.049255,482.261169 797.478027,501.360291 
	C797.603210,501.787292 797.584778,501.779877 797.234436,501.773285 
	C796.199219,502.306793 795.514404,502.846863 794.829529,503.386932 
	C786.039612,508.719391 777.249695,514.051880 768.047424,519.469360 
z"/>
<path fill="#87BC40" opacity="1.000000" stroke="none" 
	d="
M735.402466,436.151123 
	C732.142639,425.041229 729.362000,413.984131 726.428955,402.967651 
	C724.811768,396.893463 722.938660,390.887451 721.096741,384.488708 
	C733.737122,380.032745 746.796875,378.626617 760.570923,379.349304 
	C762.553101,386.028809 763.914978,392.652039 765.634155,399.181183 
	C767.989624,408.127167 770.517517,417.031311 773.172424,425.893188 
	C774.336670,429.779053 773.655029,432.049133 768.769165,432.223816 
	C757.494629,433.593567 746.656372,434.907227 735.402466,436.151123 
z"/>
<path fill="#87BC40" opacity="1.000000" stroke="none" 
	d="
M488.796387,489.064636 
	C488.241516,488.594086 487.686615,488.123566 487.186218,487.055725 
	C493.239410,470.228699 499.348724,454.038696 505.195160,437.754272 
	C508.671722,428.070892 511.734711,418.239044 514.983643,408.473938 
	C519.476196,408.433624 523.968750,408.393341 528.745239,408.677734 
	C529.029175,409.002441 529.045349,408.942200 529.045349,408.942200 
	C532.154907,409.499634 535.264465,410.057068 538.670349,411.246490 
	C535.093384,423.061554 531.263550,434.260254 527.278198,445.403259 
	C526.888428,446.493256 525.541443,447.240967 524.638733,448.147522 
	C520.159790,448.147522 515.680786,448.147522 511.201843,448.147522 
	C511.144165,448.413391 511.086487,448.679291 511.028778,448.945160 
	C514.757690,449.943054 518.486633,450.940918 522.602905,452.429382 
	C522.852478,454.068604 522.931274,455.296539 522.544312,456.354065 
	C516.621460,472.540985 510.637878,488.705658 504.668396,504.875519 
	C499.976593,500.013184 495.284790,495.150848 490.098541,489.960632 
	C489.338623,489.438049 489.069397,489.248657 488.796387,489.064636 
z"/>
<path fill="#A5D15C" opacity="1.000000" stroke="none" 
	d="
M854.839844,456.648254 
	C850.803345,444.301453 847.002869,431.771210 843.323975,419.205383 
	C841.086304,411.562378 838.968445,403.882172 836.955200,396.177277 
	C836.515320,394.493866 836.749939,392.634247 836.801147,390.522369 
	C849.181641,393.776611 861.831543,396.100464 872.381470,404.298523 
	C879.875122,410.121643 888.104248,414.996490 895.976257,420.337036 
	C897.047180,421.063568 897.950500,422.037140 899.587036,423.470581 
	C884.535034,434.635773 869.831055,445.542816 854.839844,456.648254 
z"/>
<path fill="#6CA241" opacity="1.000000" stroke="none" 
	d="
M695.615479,459.004852 
	C697.201538,460.856628 698.976074,462.615326 699.576233,464.710449 
	C704.789612,482.910034 709.850037,501.154236 714.828125,519.420044 
	C716.710327,526.325928 716.487610,526.449280 709.162476,527.047852 
	C708.346985,527.114441 707.548645,527.390808 706.388916,527.751892 
	C693.782959,525.106262 681.525452,522.299622 669.285278,519.419189 
	C668.033142,519.124512 666.885132,518.387512 665.861145,517.601929 
	C671.012268,518.534607 675.991028,519.721008 681.117493,520.942627 
	C681.330872,519.301941 681.552246,518.774353 681.433899,518.339233 
	C677.955017,505.546417 674.563538,492.726593 670.762146,480.029602 
	C670.345764,478.638824 667.542725,477.962616 665.846680,476.954987 
	C675.650940,470.992584 685.455261,465.030182 695.615479,459.004852 
z"/>
<path fill="#91C641" opacity="1.000000" stroke="none" 
	d="
M514.523315,408.387207 
	C511.734711,418.239044 508.671722,428.070892 505.195160,437.754272 
	C499.348724,454.038696 493.239410,470.228699 487.090881,486.796417 
	C479.984314,480.338196 473.027557,473.541962 466.101532,466.190674 
	C471.743103,450.948395 477.410889,436.282593 482.933014,421.562073 
	C484.802124,416.579559 485.491425,410.862854 491.958466,409.329468 
	C495.836578,408.965515 499.708130,408.466888 503.594757,408.277649 
	C507.075531,408.108185 510.572937,408.279510 514.523315,408.387207 
z"/>
<path fill="#7EB340" opacity="1.000000" stroke="none" 
	d="
M504.903381,505.075165 
	C510.637878,488.705658 516.621460,472.540985 522.544312,456.354065 
	C522.931274,455.296539 522.852478,454.068604 522.991333,452.520996 
	C523.444824,452.077728 523.897156,452.033417 524.801147,452.097900 
	C525.252747,452.206757 525.616943,452.243500 525.616943,452.243500 
	C525.616943,452.243500 525.974976,452.146729 525.974976,452.146729 
	C534.167480,454.882996 542.367188,457.598297 550.546692,460.372772 
	C552.246826,460.949463 553.872498,461.745514 555.483459,462.884583 
	C553.655334,465.284729 551.191467,466.952820 550.225037,469.250732 
	C547.278503,476.256470 544.789246,483.464264 542.344604,490.668915 
	C539.112427,500.194366 536.091003,509.791290 532.978943,519.357483 
	C522.369507,517.291138 513.547180,511.691711 504.903381,505.075165 
z"/>
<path fill="#76AC41" opacity="1.000000" stroke="none" 
	d="
M533.260315,519.629089 
	C536.091003,509.791290 539.112427,500.194366 542.344604,490.668915 
	C544.789246,483.464264 547.278503,476.256470 550.225037,469.250732 
	C551.191467,466.952820 553.655334,465.284729 555.731323,463.135986 
	C564.928467,468.408966 573.828613,473.874573 582.466309,479.716064 
	C580.786682,481.759094 578.786011,483.203339 578.049744,485.130615 
	C574.077454,495.528290 570.524475,506.085602 566.601196,516.502869 
	C564.974304,520.822693 566.241760,522.297729 570.646912,522.053467 
	C572.065430,521.974792 573.524414,522.625977 574.964844,522.943237 
	C561.044800,523.458374 547.064270,524.797119 533.260315,519.629089 
z"/>
<path fill="#9CCC4E" opacity="1.000000" stroke="none" 
	d="
M491.514709,409.307953 
	C485.491425,410.862854 484.802124,416.579559 482.933014,421.562073 
	C477.410889,436.282593 471.743103,450.948395 465.893829,465.924194 
	C464.705231,465.638336 463.609222,465.216034 462.827118,464.466248 
	C453.619995,455.639648 444.493286,446.728973 435.266113,437.923492 
	C432.659363,435.435852 429.795166,433.217896 426.707489,430.585022 
	C446.147583,416.210266 467.739319,410.141144 491.514709,409.307953 
z"/>
<path fill="#6CA241" opacity="1.000000" stroke="none" 
	d="
M678.514648,404.000793 
	C679.990417,405.671997 681.632629,407.258575 682.189514,409.162598 
	C685.902039,421.856323 689.412292,434.609833 692.896362,447.368988 
	C693.270996,448.740906 693.056396,450.273712 693.001709,452.085236 
	C683.815674,458.234497 674.743042,464.030457 665.339111,469.536835 
	C662.202393,458.389465 659.495605,447.504059 656.476685,436.705902 
	C656.062927,435.225800 654.095703,434.179993 652.847778,432.933105 
	C658.170898,423.628052 664.518616,415.217407 673.329224,408.851776 
	C675.149109,407.536896 676.572754,405.673523 678.514648,404.000793 
z"/>
<path fill="#669C40" opacity="1.000000" stroke="none" 
	d="
M595.200439,438.936371 
	C602.286316,445.312347 606.465393,453.577423 609.892883,462.213531 
	C615.288452,475.808624 617.179199,490.019104 616.480103,504.594421 
	C616.458374,505.047821 616.172852,505.488586 615.666748,506.879120 
	C604.591003,493.513397 592.981812,481.441833 579.385498,471.116852 
	C583.189148,462.012665 586.755981,453.357819 590.641541,444.848602 
	C591.648376,442.643707 593.653748,440.894745 595.200439,438.936371 
z"/>
<path fill="#7EB340" opacity="1.000000" stroke="none" 
	d="
M524.934814,448.432129 
	C525.541443,447.240967 526.888428,446.493256 527.278198,445.403259 
	C531.263550,434.260254 535.093384,423.061554 538.980225,411.487061 
	C549.481506,410.522064 558.736877,414.330109 567.852295,419.844421 
	C564.539734,430.513428 560.902039,440.453857 557.744385,450.544525 
	C557.011353,452.887238 557.914490,455.742004 558.064758,458.361145 
	C547.120117,455.146301 536.175537,451.931519 524.934814,448.432129 
z"/>
<path fill="#669C40" opacity="1.000000" stroke="none" 
	d="
M575.396301,522.850342 
	C573.524414,522.625977 572.065430,521.974792 570.646912,522.053467 
	C566.241760,522.297729 564.974304,520.822693 566.601196,516.502869 
	C570.524475,506.085602 574.077454,495.528290 578.049744,485.130615 
	C578.786011,483.203339 580.786682,481.759094 582.558228,480.040283 
	C591.757507,488.098145 600.669678,496.136292 609.398376,504.369019 
	C611.489441,506.341217 612.970093,508.960632 615.251953,511.968506 
	C602.137634,517.652832 589.267212,521.187622 575.396301,522.850342 
z"/>
<path fill="#76AC41" opacity="1.000000" stroke="none" 
	d="
M558.275940,458.600769 
	C557.914490,455.742004 557.011353,452.887238 557.744385,450.544525 
	C560.902039,440.453857 564.539734,430.513428 568.057739,420.118591 
	C573.342102,422.297058 578.759766,424.562775 583.734497,427.562958 
	C587.071655,429.575531 589.780884,432.629272 592.991821,435.780090 
	C593.661194,436.911102 594.109802,437.479248 594.558411,438.047394 
	C594.688904,438.178558 594.819397,438.309753 595.075195,438.688660 
	C593.653748,440.894745 591.648376,442.643707 590.641541,444.848602 
	C586.755981,453.357819 583.189148,462.012665 579.224365,470.821075 
	C572.125854,466.966095 565.306519,462.903259 558.275940,458.600769 
z"/>
<path fill="#669C40" opacity="1.000000" stroke="none" 
	d="
M665.544067,477.099548 
	C667.542725,477.962616 670.345764,478.638824 670.762146,480.029602 
	C674.563538,492.726593 677.955017,505.546417 681.433899,518.339233 
	C681.552246,518.774353 681.330872,519.301941 681.117493,520.942627 
	C675.991028,519.721008 671.012268,518.534607 665.602112,517.340454 
	C655.196228,513.235779 645.221802,509.138733 634.347229,504.672028 
	C644.118774,493.281769 654.308777,484.850830 665.544067,477.099548 
z"/>
<path fill="#669C40" opacity="1.000000" stroke="none" 
	d="
M652.555359,433.087830 
	C654.095703,434.179993 656.062927,435.225800 656.476685,436.705902 
	C659.495605,447.504059 662.202393,458.389465 665.015320,469.666687 
	C655.123291,478.593048 645.223694,487.100006 634.394592,496.405701 
	C635.092712,473.259338 641.383850,452.630341 652.555359,433.087830 
z"/>
<path fill="#87BC40" opacity="1.000000" stroke="none" 
	d="
M675.889954,565.762207 
	C684.284424,564.581848 692.106262,566.621582 699.866211,570.740601 
	C700.359985,579.353638 700.678345,587.221252 700.996704,595.088928 
	C692.765198,600.886292 683.952881,605.139160 673.538391,604.878540 
	C673.702942,597.211609 673.960876,590.045898 674.521912,582.686768 
	C676.771606,582.308411 678.731812,582.197998 680.648804,581.850098 
	C680.906677,581.803345 680.947327,580.559570 681.068481,579.415894 
	C680.370789,574.154724 683.408325,567.895813 675.889954,565.762207 
z"/>
<path fill="#6CA241" opacity="1.000000" stroke="none" 
	d="
M674.218750,582.880249 
	C673.960876,590.045898 673.702942,597.211609 673.221313,604.687805 
	C662.747559,604.005493 653.741699,600.370422 646.414734,592.328857 
	C646.149353,592.051453 646.102234,592.182007 646.122070,592.211914 
	C649.475464,581.153381 654.496765,571.417908 666.794434,567.064697 
	C667.612976,567.004822 667.892578,566.892761 668.138306,566.682129 
	C668.514099,566.609253 668.889954,566.536438 669.567688,567.013672 
	C669.989380,572.004395 670.109131,576.445129 669.879883,581.034302 
	C667.642395,581.880188 665.753967,582.577515 663.865479,583.274841 
	C663.952576,583.538818 664.039673,583.802734 664.126770,584.066711 
	C667.490723,583.671265 670.854736,583.275757 674.218750,582.880249 
z"/>
<path fill="#9CCC4E" opacity="1.000000" stroke="none" 
	d="
M701.367249,594.995850 
	C700.678345,587.221252 700.359985,579.353638 700.080811,570.985229 
	C708.992188,572.594177 715.688599,577.889038 721.920166,585.623291 
	C715.011597,588.799744 708.374695,591.851257 701.367249,594.995850 
z"/>
<path fill="#7EB340" opacity="1.000000" stroke="none" 
	d="
M670.228882,580.885803 
	C670.109131,576.445129 669.989380,572.004395 669.852295,567.071594 
	C671.596497,566.230774 673.358032,565.882141 675.504761,565.647827 
	C683.408325,567.895813 680.370789,574.154724 680.627930,579.458130 
	C676.881287,580.265015 673.555115,580.575378 670.228882,580.885803 
z"/>
<path fill="#91C641" opacity="1.000000" stroke="none" 
	d="
M795.123901,503.252045 
	C795.514404,502.846863 796.199219,502.306793 797.225952,501.775391 
	C796.851318,502.228455 796.134827,502.672791 795.123901,503.252045 
z"/>
<path fill="#669C40" opacity="1.000000" stroke="none" 
	d="
M594.501221,437.765686 
	C594.109802,437.479248 593.661194,436.911102 593.151245,436.070557 
	C593.541260,436.360077 593.992676,436.922028 594.501221,437.765686 
z"/>
<path fill="#87BC40" opacity="1.000000" stroke="none" 
	d="
M525.739380,452.082458 
	C525.974976,452.146729 525.616943,452.243500 525.616943,452.243500 
	C525.616943,452.243500 525.252747,452.206757 525.138245,452.158020 
	C525.023743,452.109283 525.503723,452.018188 525.739380,452.082458 
z"/>
<path fill="#91C641" opacity="1.000000" stroke="none" 
	d="
M488.894226,489.331116 
	C489.069397,489.248657 489.338623,489.438049 489.794769,489.789581 
	C489.654297,489.830109 489.323151,489.713837 488.894226,489.331116 
z"/>
<path fill="#7EB340" opacity="1.000000" stroke="none" 
	d="
M667.824707,566.651489 
	C667.892578,566.892761 667.612976,567.004822 667.146606,566.999512 
	C667.166199,566.860718 667.338684,566.740845 667.824707,566.651489 
z"/>
<path fill="#91C641" opacity="1.000000" stroke="none" 
	d="
M529.024414,408.971252 
	C529.045349,408.942200 529.029175,409.002441 529.042969,408.977112 
	C529.056824,408.951813 529.003418,409.000336 529.024414,408.971252 
z"/>
<path fill="#8B6139" opacity="1.000000" stroke="none" 
	d="
M669.879883,581.034302 
	C673.555115,580.575378 676.881287,580.265015 680.648071,579.912354 
	C680.947327,580.559570 680.906677,581.803345 680.648804,581.850098 
	C678.731812,582.197998 676.771606,582.308411 674.521851,582.686768 
	C670.854736,583.275757 667.490723,583.671265 664.126770,584.066711 
	C664.039673,583.802734 663.952576,583.538818 663.865479,583.274841 
	C665.753967,582.577515 667.642395,581.880188 669.879883,581.034302 
z"/>
</svg>